<svg xmlns="http://www.w3.org/2000/svg" xmlns:xlink="http://www.w3.org/1999/xlink" preserveAspectRatio="xMidYMid" width="22.43" height="22.312" viewBox="0 0 22.43 22.312">
  <defs>
    <style>
      .cls-1 {
        fill: #fff;
        fill-rule: evenodd;
      }
    </style>
  </defs>
  <path d="M21.932,17.650 L18.468,14.195 C17.778,13.510 16.636,13.530 15.922,14.242 L14.177,15.983 C14.067,15.922 13.953,15.859 13.833,15.791 C12.731,15.183 11.222,14.348 9.635,12.764 C8.044,11.177 7.206,9.670 6.594,8.570 C6.529,8.454 6.467,8.341 6.406,8.235 L7.577,7.068 L8.153,6.493 C8.868,5.780 8.888,4.641 8.199,3.954 L4.735,0.498 C4.047,-0.188 2.904,-0.167 2.189,0.546 L1.213,1.525 L1.240,1.552 C0.912,1.968 0.639,2.449 0.435,2.967 C0.248,3.460 0.131,3.931 0.077,4.402 C-0.380,8.184 1.353,11.640 6.055,16.330 C12.555,22.812 17.793,22.322 18.019,22.298 C18.511,22.240 18.983,22.122 19.462,21.937 C19.977,21.736 20.459,21.464 20.876,21.138 L20.897,21.157 L21.886,20.191 C22.600,19.477 22.620,18.338 21.932,17.650 Z" class="cls-1"/>
</svg>